# xmcd
#
# Track frame offsets: 
#        150
#        18649
#        32201
#        57215
#        88254
#        107460
#        131749
#        139812
#        154984
#        177688
#        197772
#        214419
#        232199
#        252088
#        266362
#        286206
#
# Disc length: 4092 seconds
#
# Revision: 0
# Processed by: cddbd v1.4b42PL1 Copyright (c) Steve Scherf et al.
# Submitted via: ExactAudioCopy v0.90a11
#
DISCID=f50ffa10
DTITLE=Tom Waits - Mule Variations
DYEAR=1900
DGENRE=
TTITLE0=Big In Japan
TTITLE1=Lowside Of The Road
TTITLE2=Hold On
TTITLE3=Get Behind The Mule
TTITLE4=House Where Nobody Lives
TTITLE5=Cold Water
TTITLE6=Pony
TTITLE7=What's He Building?
TTITLE8=Black Market Baby
TTITLE9=Eyeball Kid
TTITLE10=Picture In A Frame
TTITLE11=Chocolate Jesus
TTITLE12=Georgia Lee
TTITLE13=Filipino Box Spring Hog
TTITLE14=Take It With Me
TTITLE15=Come On Up To The House
EXTD=
EXTT0=
EXTT1=
EXTT2=
EXTT3=
EXTT4=
EXTT5=
EXTT6=
EXTT7=
EXTT8=
EXTT9=
EXTT10=
EXTT11=
EXTT12=
EXTT13=
EXTT14=
EXTT15=
PLAYORDER=
